<svg width="107" height="107" viewBox="0 0 107 107" fill="none" xmlns="http://www.w3.org/2000/svg">
<rect x="0.707107" y="53.033" width="74" height="74" rx="15.5" transform="rotate(-45 0.707107 53.033)" fill="#131F2C"/>
<rect x="0.707107" y="53.033" width="74" height="74" rx="15.5" transform="rotate(-45 0.707107 53.033)" stroke="#2B2B2B"/>
<path d="M68.8229 34.0936L37.9493 34.0949C36.172 34.0941 34.7302 35.5359 34.73 37.3143L34.7304 43.7255L42.8625 43.7257C43.4885 42.4613 44.786 41.5919 46.2924 41.592C47.8074 41.593 49.1125 42.4733 49.7338 43.7489L57.5717 43.749C58.1931 42.4742 59.498 41.5914 61.0135 41.5928C63.1301 41.5925 64.8447 43.3071 64.8447 45.424C64.8449 47.5413 63.1304 49.2559 61.0124 49.2562C59.4201 49.2556 58.0539 48.2831 57.4764 46.8994L50.1667 46.8992L59.7842 56.5174C60.17 56.3871 60.584 56.3141 61.0132 56.3132C63.1293 56.3131 64.8436 58.0274 64.8453 60.1453C64.8449 62.2617 63.1295 63.977 61.0142 63.9763C58.8963 63.9749 57.182 62.2606 57.1821 60.1442C57.1826 59.6216 57.2876 59.1213 57.478 58.666L47.7708 48.9588C47.3159 49.1499 46.8175 49.256 46.2924 49.2548C44.6898 49.2554 43.3202 48.2719 42.7469 46.8765L34.7297 46.8757L34.7298 68.0441C34.7302 69.8232 36.1721 71.265 37.9505 71.2648L68.8232 71.2645C70.601 71.2649 72.0423 69.8236 72.0432 68.0445L72.045 37.3162C72.0446 35.5376 70.6023 34.0953 68.824 34.0951" fill="#F05133"/>
</svg>
