<svg width="20" height="23" viewBox="0 0 20 23" fill="none" xmlns="http://www.w3.org/2000/svg">
<path d="M5.52399 1.31006C6.27531 1.56359 6.98983 1.91531 7.64899 2.35606C8.58051 2.11763 9.53845 1.99802 10.5 2.00006C11.493 2.00006 12.451 2.12406 13.349 2.35506C14.0079 1.91473 14.7221 1.56336 15.473 1.31006C16.17 1.07306 17.163 0.689062 17.753 1.34206C18.153 1.78606 18.253 2.53006 18.324 3.09806C18.404 3.73206 18.423 4.55806 18.213 5.37806C19.016 6.41506 19.5 7.65206 19.5 9.00006C19.5 11.0421 18.394 12.8151 16.757 14.0431C15.9688 14.626 15.0951 15.0834 14.167 15.3991C14.381 15.8891 14.5 16.4311 14.5 17.0001V20.0001C14.5 20.2653 14.3946 20.5196 14.2071 20.7072C14.0196 20.8947 13.7652 21.0001 13.5 21.0001H7.49999C7.23477 21.0001 6.98042 20.8947 6.79288 20.7072C6.60535 20.5196 6.49999 20.2653 6.49999 20.0001V19.0091C5.54499 19.1261 4.74399 19.0221 4.06299 18.7331C3.35099 18.4311 2.85499 17.9631 2.48199 17.5151C2.12799 17.0911 1.74199 16.1351 1.18399 15.9491C1.05936 15.9076 0.94413 15.8419 0.844873 15.7559C0.745615 15.6699 0.664275 15.5651 0.605495 15.4477C0.486785 15.2104 0.467177 14.9358 0.550985 14.6841C0.634794 14.4324 0.815153 14.2243 1.05239 14.1056C1.28962 13.9869 1.5643 13.9673 1.81599 14.0511C2.48199 14.2731 2.91599 14.7531 3.21299 15.1391C3.69299 15.7591 4.08299 16.5691 4.84299 16.8921C5.15599 17.0251 5.61499 17.1121 6.33299 17.0141L6.49999 16.9801C6.50229 16.4359 6.6156 15.8979 6.83299 15.3991C5.90486 15.0834 5.03118 14.626 4.24299 14.0431C2.60599 12.8151 1.49999 11.0431 1.49999 9.00006C1.49999 7.65406 1.98299 6.41806 2.78399 5.38206C2.57399 4.56206 2.59199 3.73406 2.67199 3.09906L2.67699 3.06106C2.74999 2.47906 2.83499 1.79406 3.24299 1.34206C3.83299 0.689062 4.82699 1.07406 5.52299 1.31106L5.52399 1.31006Z" fill="#FEFEFF"/>
</svg>
