<svg width="75" height="75" viewBox="0 0 75 75" fill="none" xmlns="http://www.w3.org/2000/svg">
<g clip-path="url(#clip0_437_964)">
<path d="M-10 86V-10H86V86H-10Z" fill="#FFD600"/>
<path d="M48.907 56.0436C50.338 58.3487 51.8931 60.5574 55.1874 60.5574C57.9544 60.5574 59.4061 59.1937 59.4061 57.3069C59.4061 55.049 57.9048 54.2472 54.8607 52.9326L53.1918 52.2271C48.3755 50.201 45.1722 47.6621 45.1722 42.2993C45.1722 37.3569 48.9876 33.5958 54.9496 33.5958C59.1952 33.5958 62.2455 35.0539 64.4458 38.8725L59.2469 42.1681C58.1033 40.1419 56.8666 39.3441 54.9496 39.3441C52.9933 39.3441 51.7546 40.5685 51.7546 42.1681C51.7546 44.145 52.9954 44.9448 55.8595 46.1691L57.5284 46.8746C63.205 49.272 66.4062 51.7206 66.4062 57.2249C66.4062 63.1558 61.683 66.4062 55.3425 66.4062C49.1407 66.4062 45.6189 63.3198 43.6584 59.4992L48.907 56.0436ZM24.9473 56.2118C25.9937 58.0698 27.584 59.4992 29.8712 59.4992C32.0591 59.4992 33.3185 58.642 33.3185 55.3095V33.5938H40.2111V56.3595C40.2111 63.2645 36.1723 66.4062 30.2744 66.4062C24.9452 66.4062 21.0988 62.8256 19.5312 59.4992L24.9473 56.2118Z" fill="#000001"/>
</g>
<rect x="0.5" y="0.5" width="74" height="74" rx="15.5" stroke="#2B2B2B"/>
<defs>
<clipPath id="clip0_437_964">
<rect width="75" height="75" rx="16" fill="white"/>
</clipPath>
</defs>
</svg>
