<svg xmlns="http://www.w3.org/2000/svg" viewBox="0 0 16.933 16.933" height="64" width="64">
  <path d="M9.97.036c-.267.015-.522.105-.71.269L2.494 6.452a1.1 1.1 0 0 0-.392.733 1.1 1.1 0 0 0 .179.81l.741 1.19c.114.183.27.334.453.437a1.1 1.1 0 0 0 .61.181 1.1 1.1 0 0 0 .61-.181l.148-.092a1.1 1.1 0 0 0 .453-.873v-2.88l4.885-3.036v6.838a1.1 1.1 0 0 0 .453.873l.148.092a1.1 1.1 0 0 0 .61.181 1.1 1.1 0 0 0 .61-.181 1.1 1.1 0 0 0 .453-.437l.741-1.19a1.1 1.1 0 0 0 .179-.81 1.1 1.1 0 0 0-.392-.733L9.97.036z" fill="#e0234e"/>
  <path d="M9.94 4.839a.55.55 0 0 0-.478.275.55.55 0 0 0 .478.825.55.55 0 0 0 .478-.275.55.55 0 0 0-.478-.825zm-4.17 4.17a.55.55 0 0 0-.478.275.55.55 0 0 0 .478.825.55.55 0 0 0 .478-.275.55.55 0 0 0-.478-.825z" fill="#e0234e"/>
</svg> 