<svg xmlns="http://www.w3.org/2000/svg" viewBox="0 0 24 24">
  <path fill="#000000" d="M11.572 0c-.176 0-.31.001-.358.007a19.76 19.76 0 0 1-.364.033C7.443.346 4.25 2.185 2.228 5.012a11.875 11.875 0 0 0-2.119 5.243c-.096.659-.108.854-.108 1.747s.012 1.089.108 1.748c.652 4.506 3.86 8.292 8.209 9.695.779.25 1.6.422 2.534.525.363.04 1.935.04 2.299 0 1.611-.178 2.977-.577 4.323-1.264.207-.106.247-.134.219-.158-.02-.013-.9-1.193-1.955-2.62l-1.919-2.592-2.404-3.558a338.739 338.739 0 0 0-2.422-3.556c-.009-.002-.018 1.579-.023 3.51-.007 3.38-.01 3.515-.052 3.595a.426.426 0 0 1-.206.214c-.075.037-.14.044-.495.044H7.81l-.108-.068a.438.438 0 0 1-.157-.171l-.049-.106.005-4.703.007-4.705.073-.091a.637.637 0 0 1 .174-.143c.096-.047.134-.052.54-.052.479 0 .558.019.683.155a466.83 466.83 0 0 1 2.911 4.319c1.6 2.382 2.916 4.34 2.924 4.351.011.017.053-.052.099-.163.437-1.035.674-2.145.714-3.365.012-.373.004-.469-.058-.813-.1-.557-.362-1.224-.702-1.794-.095-.16-.762-1.16-.762-1.14 0 .003.386.548.857 1.21.87 1.214 1.637 2.288 2.455 3.438l.236.334-.001-1.066c-.003-1.732-.253-3.047-.83-4.342a10.896 10.896 0 0 0-1.872-2.764A11.521 11.521 0 0 0 12.172.047c-.118-.006-.278-.01-.358-.011zm4.042 8.001c.034.063.066.187.071.273.01.185-.038.374-.149.584l-.093.176.182.289c.682 1.084 1.375 2.188 2.076 3.3l.211.335.265-.398c.291-.438.487-.807.616-1.161.219-.607.229-1.227.029-1.824-.113-.337-.286-.644-.523-.925a5.564 5.564 0 0 0-.584-.533c-.153-.115-.303-.193-.311-.161z"/>
</svg> 