<svg width="107" height="107" viewBox="0 0 107 107" fill="none" xmlns="http://www.w3.org/2000/svg">
<rect x="0.707107" y="53.8822" width="74" height="74" rx="15.5" transform="rotate(-45 0.707107 53.8822)" fill="#131F2C"/>
<rect x="0.707107" y="53.8822" width="74" height="74" rx="15.5" transform="rotate(-45 0.707107 53.8822)" stroke="#2B2B2B"/>
<path d="M29.3247 65.5292L64.68 30.1739L76.8887 42.3825L59.211 60.0601L61.3655 62.2146L53.2632 70.3169L51.1087 68.1624L41.5333 77.7378L29.3247 65.5292Z" fill="#D50000"/>
<path d="M41.557 73.3421L45.2398 69.6592L39.5577 63.9771L41.7674 61.7674L47.4495 67.4495L48.9227 65.9764L41.1098 58.1635L33.7441 65.5292L41.557 73.3421ZM43.3195 55.9538L53.2632 65.8975L56.946 62.2146L54.8152 60.0838L58.4981 56.401L50.6852 48.5881L43.3195 55.9538ZM54.8942 55.7433L52.6844 57.953L49.1331 54.4017L51.3428 52.192L54.8942 55.7433ZM52.8949 46.3784L60.7078 54.1913L64.3906 50.5084L58.7085 44.8263L60.9183 42.6166L66.6004 48.2987L68.8101 46.089L63.128 40.4069L65.3377 38.1972L71.0198 43.8793L72.4929 42.4061L64.68 34.5932L52.8949 46.3784Z" fill="white"/>
</svg>
