<svg width="75" height="75" viewBox="0 0 75 75" fill="none" xmlns="http://www.w3.org/2000/svg">
<g clip-path="url(#clip0_437_971)">
<rect x="75" width="75" height="75" rx="16" transform="rotate(90 75 0)" fill="#000B1D"/>
<path d="M75 13.2813L75 61.7187C75.0017 63.4633 74.6505 65.1911 73.9665 66.8032C73.2826 68.4153 72.2793 69.8801 71.014 71.1137C69.7488 72.3473 68.2465 73.3255 66.593 73.9924C64.9396 74.6592 63.1675 75.0016 61.3782 75L13.6218 75C11.8325 75.0016 10.0604 74.6592 8.40697 73.9924C6.75354 73.3255 5.25121 72.3473 3.98597 71.1137C2.72074 69.8801 1.71742 68.4153 1.03346 66.8032C0.3495 65.1911 -0.00168124 63.4633 4.93158e-06 61.7187L7.04885e-06 13.2813C-0.00167897 11.5367 0.349502 9.80889 1.03346 8.19679C1.71742 6.58469 2.72074 5.11993 3.98598 3.88632C5.25121 2.65272 6.75354 1.67449 8.40697 1.00763C10.0604 0.340766 11.8325 -0.00164115 13.6218 3.21106e-06L61.3782 5.29856e-06C63.1675 -0.0016389 64.9396 0.340769 66.593 1.00763C68.2465 1.67449 69.7488 2.65272 71.014 3.88633C72.2793 5.11993 73.2826 6.5847 73.9665 8.1968C74.6505 9.80889 75.0017 11.5367 75 13.2813Z" fill="#000B1D"/>
<g clip-path="url(#clip1_437_971)">
<path d="M33.1172 38C33.1172 40.4522 35.0794 42.4402 37.5 42.4402C39.9206 42.4402 41.8828 40.4522 41.8828 38C41.8828 35.5477 39.9206 33.5597 37.5 33.5597C35.0794 33.5597 33.1172 35.5477 33.1172 38Z" fill="#61DAFB"/>
<path fill-rule="evenodd" clip-rule="evenodd" d="M40.2348 16.7421C39.2748 15.6648 38.349 15.2122 37.5 15.2122C36.6511 15.2122 35.7252 15.6648 34.7653 16.7421C33.8054 17.8194 32.894 19.4364 32.1077 21.523C30.5376 25.6889 29.545 31.5141 29.545 38.0001C29.545 44.4861 30.5376 50.3114 32.1077 54.4773C32.894 56.5638 33.8054 58.1809 34.7653 59.2581C35.7252 60.3354 36.6511 60.788 37.5 60.788C38.3489 60.788 39.2748 60.3354 40.2348 59.2581C41.1946 58.1809 42.106 56.5638 42.8924 54.4773C44.4624 50.3114 45.455 44.4861 45.455 38.0001C45.455 31.5141 44.4624 25.6889 42.8924 21.523C42.106 19.4364 41.1946 17.8194 40.2348 16.7421ZM44.8065 20.7825C46.4863 25.2399 47.5039 31.3275 47.5039 38.0001C47.5039 44.6728 46.4863 50.7604 44.8065 55.2177C43.9679 57.4428 42.9443 59.3149 41.7556 60.649C40.567 61.983 39.1307 62.8638 37.5 62.8638C35.8694 62.8638 34.433 61.983 33.2444 60.649C32.0557 59.3149 31.0322 57.4428 30.1936 55.2177C28.5137 50.7604 27.4962 44.6728 27.4962 38.0001C27.4962 31.3275 28.5137 25.2399 30.1936 20.7825C31.0322 18.5574 32.0557 16.6853 33.2444 15.3512C34.433 14.0173 35.8694 13.1365 37.5 13.1365C39.1307 13.1365 40.567 14.0173 41.7556 15.3512C42.9443 16.6853 43.9679 18.5575 44.8065 20.7825Z" fill="#61DAFB"/>
<path fill-rule="evenodd" clip-rule="evenodd" d="M57.0391 29.7704C57.4801 28.3895 57.404 27.3509 56.9796 26.6061C56.5551 25.8612 55.7053 25.2752 54.3044 24.9716C52.9036 24.6681 51.0656 24.677 48.8888 25.0303C44.5427 25.7357 39.0668 27.7775 33.5225 31.0205C27.9781 34.2635 23.4949 38.047 20.7188 41.5075C19.3284 43.2407 18.4017 44.8488 17.9608 46.2296C17.5199 47.6105 17.5959 48.6491 18.0204 49.394C18.4449 50.1388 19.2947 50.7249 20.6956 51.0284C22.0964 51.332 23.9343 51.3231 26.1111 50.9697C30.4573 50.2643 35.9331 48.2225 41.4775 44.9795C47.0218 41.7365 51.5051 37.953 54.2812 34.4926C55.6716 32.7594 56.5982 31.1512 57.0391 29.7704ZM55.8712 35.8017C52.9009 39.5043 48.2058 43.4408 42.5019 46.7772C36.798 50.1135 31.0854 52.2645 26.4353 53.0193C24.1139 53.3961 22.0018 53.4342 20.267 53.0582C18.5325 52.6824 17.0613 51.8625 16.246 50.4318C15.4307 49.0011 15.4654 47.3005 16.0114 45.5907C16.5575 43.8807 17.646 42.0466 19.1288 40.1983C22.0991 36.4958 26.7941 32.5592 32.4981 29.2229C38.202 25.8865 43.9146 23.7355 48.5647 22.9807C50.8861 22.6039 52.9982 22.5659 54.7329 22.9418C56.4675 23.3177 57.9386 24.1375 58.7539 25.5682C59.5693 26.9989 59.5345 28.6995 58.9885 30.4094C58.4425 32.1193 57.3539 33.9534 55.8712 35.8017Z" fill="#61DAFB"/>
<path fill-rule="evenodd" clip-rule="evenodd" d="M54.3044 51.0284C55.7053 50.7248 56.5551 50.1388 56.9796 49.394C57.404 48.6491 57.4801 47.6105 57.0391 46.2296C56.5982 44.8488 55.6716 43.2407 54.2812 41.5075C51.5051 38.047 47.0218 34.2635 41.4775 31.0205C35.9331 27.7775 30.4573 25.7357 26.1111 25.0303C23.9343 24.677 22.0964 24.668 20.6956 24.9716C19.2947 25.2752 18.4449 25.8612 18.0204 26.606C17.5959 27.3509 17.5199 28.3895 17.9608 29.7704C18.4017 31.1512 19.3283 32.7593 20.7188 34.4925C23.4949 37.953 27.9781 41.7365 33.5225 44.9795C39.0668 48.2225 44.5427 50.2643 48.8888 50.9697C51.0656 51.323 52.9036 51.332 54.3044 51.0284ZM48.5647 53.0193C43.9146 52.2645 38.202 50.1135 32.4981 46.7772C26.7941 43.4408 22.0991 39.5043 19.1288 35.8017C17.646 33.9534 16.5575 32.1193 16.0114 30.4093C15.4654 28.6995 15.4307 26.9989 16.246 25.5682C17.0613 24.1375 18.5325 23.3176 20.267 22.9418C22.0018 22.5659 24.1139 22.6039 26.4353 22.9807C31.0854 23.7355 36.798 25.8865 42.5019 29.2229C48.2058 32.5592 52.9009 36.4957 55.8712 40.1983C57.3539 42.0466 58.4425 43.8807 58.9885 45.5907C59.5345 47.3005 59.5693 49.0011 58.7539 50.4318C57.9386 51.8625 56.4675 52.6824 54.7329 53.0582C52.9982 53.4341 50.886 53.3961 48.5647 53.0193Z" fill="#61DAFB"/>
</g>
</g>
<rect x="74.5" y="0.5" width="74" height="74" rx="15.5" transform="rotate(90 74.5 0.5)" stroke="#2B2B2B"/>
<defs>
<clipPath id="clip0_437_971">
<rect x="75" width="75" height="75" rx="16" transform="rotate(90 75 0)" fill="white"/>
</clipPath>
<clipPath id="clip1_437_971">
<rect width="49.8176" height="43.75" fill="white" transform="translate(59.375 13.0912) rotate(90)"/>
</clipPath>
</defs>
</svg>
