<svg xmlns="http://www.w3.org/2000/svg" viewBox="0 0 24 24">
  <path fill="#6DB33F" d="M12 0C5.373 0 0 5.373 0 12s5.373 12 12 12 12-5.373 12-12S18.627 0 12 0zm0 2.182c5.423 0 9.818 4.395 9.818 9.818 0 5.423-4.395 9.818-9.818 9.818-5.423 0-9.818-4.395-9.818-9.818 0-5.423 4.395-9.818 9.818-9.818zm4.276 14.574c-2.417 1.935-6.194 1.578-8.702-.796-2.509-2.374-2.509-6.18 0-8.554 2.508-2.374 6.285-2.731 8.702-.796.184.147.184.428 0 .575-1.842 1.468-1.842 3.828 0 5.296.184.147.184.428 0 .575l-.367.367c-.184.147-.184.428 0 .575l.367.758z"/>
</svg> 