<svg width="107" height="107" viewBox="0 0 107 107" fill="none" xmlns="http://www.w3.org/2000/svg">
<g clip-path="url(#clip0_437_967)">
<rect x="53.8823" width="75" height="75" rx="16" transform="rotate(45 53.8823 0)" fill="#131F2C"/>
<path d="M80.2717 44.5073C80.358 44.7561 82.9396 51.9764 84.1999 55.503C84.6164 56.6673 84.3279 57.9591 83.4599 58.8271L59.7188 82.5682C58.8518 83.4353 57.5643 83.7265 56.401 83.3144C53.0451 82.1293 46.3786 79.7727 45.9369 79.6138C45.6116 79.4971 44.7204 79.2264 44.2499 78.7559C43.6457 78.1517 43.5196 77.467 43.4872 76.7028L52.3062 72.1592L78.8191 45.6462L77.8139 42.6345C78.6597 42.6477 79.3512 43.1466 79.7032 43.4986C80.0258 43.8212 80.1667 44.206 80.2717 44.5073Z" fill="url(#paint0_linear_437_967)"/>
<path d="M32.1067 48.2875L70.7398 53.8696L78.5955 46.0139C79.724 44.8854 78.6964 42.9736 77.5574 42.9187C76.4535 42.8642 32.3126 40.4023 32.3126 40.4023C30.7957 40.3275 29.5925 41.6209 29.7733 43.1308C29.7733 43.1308 29.8739 45.3719 30.0004 46.0926C30.1952 47.1995 30.9982 48.1068 32.1067 48.2875Z" fill="url(#paint1_linear_437_967)"/>
<path d="M49.1365 31.2578L54.6748 69.9347L47.0475 77.5619C46.0058 78.6037 43.8848 78.2133 43.76 76.6066L41.2472 31.4679C41.173 29.9502 42.4678 28.7457 43.9784 28.9259C43.9784 28.9259 46.2206 29.0254 46.9415 29.1515C48.0489 29.3458 48.9562 30.1488 49.1365 31.2578Z" fill="#0288D1"/>
</g>
<rect x="53.8823" y="0.707107" width="74" height="74" rx="15.5" transform="rotate(45 53.8823 0.707107)" stroke="#2B2B2B"/>
<defs>
<linearGradient id="paint0_linear_437_967" x1="48.9226" y1="82.315" x2="80.6982" y2="50.5394" gradientUnits="userSpaceOnUse">
<stop stop-color="#29B6F6"/>
<stop offset="1" stop-color="#13B2F6"/>
</linearGradient>
<linearGradient id="paint1_linear_437_967" x1="28.7428" y1="46.496" x2="78.1391" y2="47.0036" gradientUnits="userSpaceOnUse">
<stop offset="0.115" stop-color="#0076BB"/>
<stop offset="0.257" stop-color="#0069B0"/>
<stop offset="0.28" stop-color="#0069B0"/>
<stop offset="0.424" stop-color="#0069B0"/>
<stop offset="0.491" stop-color="#0072B7"/>
<stop offset="0.577" stop-color="#0076BB"/>
<stop offset="0.795" stop-color="#0076BB"/>
<stop offset="1" stop-color="#006EB9"/>
</linearGradient>
<clipPath id="clip0_437_967">
<rect x="53.8823" width="75" height="75" rx="16" transform="rotate(45 53.8823 0)" fill="white"/>
</clipPath>
</defs>
</svg>
