<svg width="54" height="54" viewBox="0 0 54 54" fill="none" xmlns="http://www.w3.org/2000/svg">
<path d="M19.2853 9.52816C20.88 4.8615 27.328 4.72016 29.2186 9.10416L29.3786 9.53083L31.5306 15.8242C32.0238 17.2675 32.8208 18.5882 33.8678 19.6973C34.9148 20.8064 36.1875 21.6781 37.6 22.2535L38.1786 22.4695L44.472 24.6188C49.1386 26.2135 49.28 32.6615 44.8986 34.5522L44.472 34.7122L38.1786 36.8642C36.7349 37.357 35.4136 38.1538 34.304 39.2009C33.1944 40.2479 32.3224 41.5207 31.7466 42.9335L31.5306 43.5095L29.3813 49.8055C27.7866 54.4722 21.3386 54.6135 19.4506 50.2322L19.2853 49.8055L17.136 43.5122C16.6431 42.0684 15.8463 40.7471 14.7993 39.6375C13.7523 38.528 12.4794 37.6559 11.0666 37.0802L10.4906 36.8642L4.19731 34.7148C-0.472027 33.1202 -0.61336 26.6722 3.77064 24.7842L4.19731 24.6188L10.4906 22.4695C11.9339 21.9763 13.2547 21.1793 14.3638 20.1324C15.4729 19.0854 16.3445 17.8127 16.92 16.4002L17.136 15.8242L19.2853 9.52816ZM45.6666 0.333497C46.1655 0.333495 46.6544 0.473438 47.0777 0.73742C47.501 1.0014 47.8418 1.37884 48.0613 1.82683L48.1893 2.13883L49.1226 4.87483L51.8613 5.80816C52.3613 5.97802 52.7995 6.29247 53.1206 6.71167C53.4416 7.13087 53.631 7.63594 53.6647 8.16289C53.6984 8.68983 53.5749 9.21491 53.3099 9.6716C53.0449 10.1283 52.6502 10.496 52.176 10.7282L51.8613 10.8562L49.1253 11.7895L48.192 14.5282C48.0218 15.028 47.7071 15.466 47.2878 15.7868C46.8684 16.1076 46.3633 16.2967 45.8363 16.3301C45.3094 16.3635 44.7844 16.2397 44.3279 15.9745C43.8714 15.7093 43.5039 15.3145 43.272 14.8402L43.144 14.5282L42.2106 11.7922L39.472 10.8588C38.972 10.689 38.5337 10.3745 38.2127 9.95532C37.8916 9.53612 37.7023 9.03105 37.6686 8.50411C37.6349 7.97717 37.7584 7.45208 38.0234 6.9954C38.2884 6.53871 38.6831 6.17099 39.1573 5.93883L39.472 5.81083L42.208 4.8775L43.1413 2.13883C43.3211 1.61196 43.6613 1.15459 44.1142 0.830826C44.5671 0.507067 45.1099 0.333162 45.6666 0.333497Z" fill="#BBCDE5"/>
</svg>
