<svg width="60" height="60" viewBox="0 0 60 60" fill="none" xmlns="http://www.w3.org/2000/svg">
<path d="M35.3333 29.9998L30 35.3332L24.6667 29.9998L30 24.6665L35.3333 29.9998ZM30 13.9998L35.6533 19.6532L42.32 12.9865L30 0.666504L17.68 12.9865L24.3467 19.6532L30 13.9998ZM14 29.9998L19.6533 24.3465L12.9867 17.6798L0.666656 29.9998L12.9867 42.3198L19.6533 35.6532L14 29.9998ZM46 29.9998L40.3467 35.6532L47.0133 42.3198L59.3333 29.9998L47.0133 17.6798L40.3467 24.3465L46 29.9998ZM30 45.9998L24.3467 40.3465L17.68 47.0132L30 59.3332L42.32 47.0132L35.6533 40.3465L30 45.9998Z" fill="#BBCDE5"/>
</svg>
