<svg width="56" height="48" viewBox="0 0 56 48" fill="none" xmlns="http://www.w3.org/2000/svg">
<path fill-rule="evenodd" clip-rule="evenodd" d="M15.12 11.8799C15.6818 12.4424 15.9973 13.2049 15.9973 13.9999C15.9973 14.7949 15.6818 15.5574 15.12 16.1199L7.23998 23.9999L15.12 31.8799C15.4147 32.1545 15.6511 32.4857 15.8151 32.8537C15.9791 33.2217 16.0672 33.619 16.0744 34.0218C16.0815 34.4246 16.0074 34.8247 15.8565 35.1982C15.7056 35.5718 15.481 35.9111 15.1961 36.196C14.9113 36.4809 14.5719 36.7055 14.1984 36.8563C13.8248 37.0072 13.4247 37.0813 13.0219 37.0742C12.6191 37.0671 12.2218 36.9789 11.8538 36.815C11.4858 36.651 11.1546 36.4146 10.88 36.1199L0.879985 26.1199C0.318183 25.5574 0.00262451 24.7949 0.00262451 23.9999C0.00262451 23.2049 0.318183 22.4424 0.879985 21.8799L10.88 11.8799C11.4425 11.3181 12.205 11.0025 13 11.0025C13.795 11.0025 14.5575 11.3181 15.12 11.8799ZM40.88 11.8799C40.3182 12.4424 40.0026 13.2049 40.0026 13.9999C40.0026 14.7949 40.3182 15.5574 40.88 16.1199L48.76 23.9999L40.88 31.8799C40.5852 32.1545 40.3488 32.4857 40.1849 32.8537C40.0209 33.2217 39.9327 33.619 39.9256 34.0218C39.9185 34.4246 39.9926 34.8247 40.1435 35.1982C40.2944 35.5718 40.519 35.9111 40.8038 36.196C41.0887 36.4809 41.428 36.7055 41.8016 36.8563C42.1751 37.0072 42.5753 37.0813 42.9781 37.0742C43.3809 37.0671 43.7781 36.9789 44.1461 36.815C44.5141 36.651 44.8453 36.4146 45.12 36.1199L55.12 26.1199C55.6818 25.5574 55.9973 24.7949 55.9973 23.9999C55.9973 23.2049 55.6818 22.4424 55.12 21.8799L45.12 11.8799C44.5575 11.3181 43.795 11.0025 43 11.0025C42.205 11.0025 41.4425 11.3181 40.88 11.8799ZM31.424 0.0318534C32.2109 0.144773 32.9209 0.565436 33.3979 1.20144C33.8749 1.83744 34.0799 2.63677 33.968 3.42385L27.968 45.4239C27.831 46.189 27.4023 46.8711 26.7723 47.3265C26.1423 47.7818 25.3602 47.9749 24.5907 47.8649C23.8212 47.755 23.1244 47.3507 22.6471 46.7371C22.1698 46.1236 21.9493 45.3488 22.032 44.5759L28.032 2.57585C28.1449 1.78891 28.5656 1.07897 29.2016 0.601966C29.8376 0.124964 30.6369 -0.0800873 31.424 0.0318534Z" fill="#BBCDE5"/>
</svg>
